<?xml version="1.0" standalone="no"?>
<!DOCTYPE svg PUBLIC "-//W3C//DTD SVG 1.1//EN" "http://www.w3.org/Graphics/SVG/1.1/DTD/svg11.dtd" >
<svg xmlns="http://www.w3.org/2000/svg" xmlns:xlink="http://www.w3.org/1999/xlink" version="1.1">
<metadata></metadata>
<defs>
<font id="hurmegeometricsans4_regularRg" horiz-adv-x="1241" >
<font-face units-per-em="2048" ascent="1653" descent="-395" />
<missing-glyph horiz-adv-x="843" />
<glyph horiz-adv-x="0" />
<glyph horiz-adv-x="682" />
<glyph unicode=" "  horiz-adv-x="843" />
<glyph unicode="&#x09;" horiz-adv-x="843" />
<glyph unicode="&#xa0;" horiz-adv-x="843" />
<glyph unicode="!" horiz-adv-x="491" d="M143 72q0 43 31 72.5t72 29.5t71.5 -29.5t30.5 -72.5t-30.5 -73t-71.5 -30t-72 30t-31 73zM150 1427h192l-33 -1110h-127z" />
<glyph unicode="&#x22;" horiz-adv-x="591" d="M90 1427h154l-25 -516h-104zM348 1427h154l-25 -516h-104z" />
<glyph unicode="#" horiz-adv-x="1120" d="M55 459v127h213l62 241h-183v127h215l56 220h141l-57 -220h241l58 220h139l-55 -220h180v-127h-213l-61 -241h184v-127h-215l-58 -221h-141l57 221h-241l-58 -221h-141l58 221h-181zM408 586h241l64 241h-244z" />
<glyph unicode="$" horiz-adv-x="1114" d="M92 317l150 70q37 -100 102.5 -166.5t159.5 -89.5v582q-66 30 -111.5 55t-91 61t-72.5 74.5t-44 91.5t-17 117q0 139 94 234.5t242 109.5v197h131v-201q203 -30 303 -217l-135 -70q-57 109 -168 135v-479q86 -39 142.5 -69.5t109.5 -70.5t82.5 -82.5t47 -100t17.5 -129.5 q0 -164 -104.5 -272t-294.5 -120v-196h-131v201q-141 19 -248 103t-164 232zM328 1112q0 -84 43 -135t133 -96v428q-79 -11 -127.5 -62t-48.5 -135zM635 125q61 5 107 26t70.5 47t39 60.5t18.5 59.5t4 51q0 105 -56 164.5t-183 119.5v-528z" />
<glyph unicode="%" horiz-adv-x="1501" d="M74 1139q0 132 93.5 225.5t225.5 93.5t226 -93.5t94 -225.5t-94 -226t-226 -94t-225.5 94t-93.5 226zM209 1139q0 -82 53.5 -138.5t130.5 -56.5q76 0 130.5 57t54.5 138q0 79 -55 136.5t-130 57.5q-76 0 -130 -57t-54 -137zM213 0l924 1427h157l-923 -1427h-158zM788 289 q0 132 94 225.5t226 93.5t225.5 -93.5t93.5 -225.5t-93.5 -226t-225.5 -94t-226 94t-94 226zM924 289q0 -82 53.5 -138.5t130.5 -56.5q75 0 129.5 57t54.5 138q0 79 -54.5 136.5t-129.5 57.5q-76 0 -130 -57t-54 -137z" />
<glyph unicode="&#x26;" horiz-adv-x="1513" d="M86 457q0 145 73 254.5t212 175.5q-60 108 -60 217q0 153 100.5 251.5t262.5 98.5q154 0 252 -93.5t98 -230.5q0 -110 -68 -178h500v-147h-276v-78q0 -278 -80 -455l246 -272h-205l-125 139q-153 -170 -408 -170q-234 0 -378 135.5t-144 352.5zM246 457 q0 -157 97.5 -248.5t264.5 -91.5q202 0 301 139q-114 125 -204 223.5t-117.5 128t-55.5 61t-35.5 41t-39.5 50.5q-211 -94 -211 -303zM471 1104q0 -61 29 -125t61.5 -106t93.5 -111l326 -359q39 127 39 324v78h-305v98q70 15 113.5 72.5t43.5 136.5q0 85 -57 140t-145 55 q-76 0 -137.5 -53t-61.5 -150z" />
<glyph unicode="'" horiz-adv-x="333" d="M90 1427h154l-25 -516h-104z" />
<glyph unicode="(" horiz-adv-x="602" d="M96 633q0 283 117.5 532.5t345.5 450.5l76 -82q-193 -190 -290 -410t-97 -491t97 -491t290 -410l-76 -82q-228 201 -345.5 450.5t-117.5 532.5z" />
<glyph unicode=")" horiz-adv-x="602" d="M-33 -268q193 190 290 410t97 491t-97 491t-290 410l76 82q228 -201 345.5 -450.5t117.5 -532.5t-117.5 -532.5t-345.5 -450.5z" />
<glyph unicode="*" horiz-adv-x="794" d="M92 1169l43 115l213 -90l-10 233h121l-13 -233l216 90l40 -115l-225 -69l156 -176l-96 -74l-140 192l-139 -192l-94 74l153 176z" />
<glyph unicode="+" horiz-adv-x="786" d="M86 641v141h229v254h156v-254h229v-141h-229v-252h-156v252h-229z" />
<glyph unicode="," horiz-adv-x="393" d="M-74 -262l185 489h202l-258 -489h-129z" />
<glyph unicode="-" horiz-adv-x="786" d="M86 469v141h614v-141h-614z" />
<glyph unicode="." horiz-adv-x="385" d="M90 88q0 43 31 72.5t72 29.5t71.5 -29.5t30.5 -72.5t-30.5 -72.5t-71.5 -29.5t-72 29.5t-31 72.5z" />
<glyph unicode="/" horiz-adv-x="864" d="M2 -279l639 1760h145l-643 -1760h-141z" />
<glyph unicode="0" horiz-adv-x="1134" d="M82 715q0 237 6 305q19 187 156 312.5t323 125.5t323.5 -125.5t156.5 -312.5q6 -68 6 -305q0 -239 -6 -307q-19 -187 -156.5 -313t-323.5 -126t-323 125.5t-156 313.5q-6 68 -6 307zM233 715q0 -228 7 -297q12 -128 105.5 -212.5t221.5 -84.5t222 84.5t106 212.5 q6 59 6 297q0 236 -6 295q-12 128 -106 212.5t-222 84.5t-221.5 -84.5t-105.5 -212.5q-7 -69 -7 -295z" />
<glyph unicode="1" horiz-adv-x="616" d="M78 1280v147h356v-1427h-160v1280h-196z" />
<glyph unicode="2" horiz-adv-x="1028" d="M27 0v104l641 723q94 110 94 228q0 104 -75 178t-179 74t-178 -75t-74 -179h-158q0 167 121 286t291 119t291 -119t121 -286q0 -170 -148 -338l-510 -568h692v-147h-929z" />
<glyph unicode="3" horiz-adv-x="1148" d="M25 266l137 64q41 -98 144.5 -153.5t246.5 -55.5q159 0 259.5 91t100.5 237q0 142 -103 231.5t-278 89.5q-83 0 -163 -25l-58 103l461 432h-616v147h858v-106l-455 -422q12 4 41 4q197 0 331 -129t134 -325q0 -212 -144.5 -346t-367.5 -134q-187 0 -327.5 79.5 t-200.5 217.5z" />
<glyph unicode="4" horiz-adv-x="1169" d="M109 317v107l495 1003h172l-477 -962h555v311h160v-776h-160v317h-745z" />
<glyph unicode="5" horiz-adv-x="1136" d="M57 260l138 66q44 -94 135 -149.5t198 -55.5q146 0 254.5 102.5t108.5 243.5q0 145 -100.5 247.5t-241.5 102.5q-156 0 -266 -92l-113 27l121 675h661v-147h-526l-64 -350q83 39 185 39q114 0 211.5 -42.5t161 -112.5t99.5 -157t36 -178q0 -150 -72 -268t-191.5 -180 t-263.5 -62q-152 0 -279.5 79.5t-191.5 211.5z" />
<glyph unicode="6" horiz-adv-x="1153" d="M82 471q0 102 45.5 195.5t148.5 244.5q10 13 342 516h191l-328 -487q55 12 117 12q124 0 233.5 -62.5t176.5 -174t67 -242.5q0 -212 -145 -358t-350 -146q-134 0 -248.5 66.5t-182 182t-67.5 253.5zM244 465q0 -148 97 -246t239 -98q141 0 242.5 101.5t101.5 242.5 t-101.5 241.5t-242.5 100.5q-146 0 -241 -97t-95 -245z" />
<glyph unicode="7" horiz-adv-x="1122" d="M74 1280v147h975v-110l-646 -1317h-176l631 1280h-784z" />
<glyph unicode="8" horiz-adv-x="1110" d="M78 432q0 145 72 246.5t182 146.5q-67 46 -106.5 115t-39.5 150q0 152 108.5 260t260.5 108t260.5 -108t108.5 -260q0 -81 -39.5 -150t-106.5 -115q110 -45 182 -146.5t72 -246.5q0 -125 -63 -231.5t-173 -169t-241 -62.5t-241 62.5t-173 169t-63 231.5zM238 432 q0 -129 93 -220t224 -91t224 91t93 220t-93 220t-224 91t-224 -91t-93 -220zM344 1090q0 -90 62 -154t149 -64t149 64t62 154q0 89 -61.5 153t-149.5 64t-149.5 -64t-61.5 -153z" />
<glyph unicode="9" horiz-adv-x="1130" d="M80 965q0 207 142.5 350t342.5 143q211 0 348.5 -141.5t137.5 -343.5q0 -59 -14 -115t-48 -122t-62 -110t-85 -130q-2 -3 -13 -20q-93 -138 -315 -476h-190l350 516q-63 -18 -123 -18q-119 0 -226 57.5t-176 166.5t-69 243zM231 973q0 -138 98 -236t236 -98 q155 0 244.5 95.5t89.5 238.5q0 138 -98 236t-236 98t-236 -98t-98 -236z" />
<glyph unicode=":" horiz-adv-x="385" d="M90 233q0 43 31 73t72 30t71.5 -30t30.5 -73t-30.5 -72.5t-71.5 -29.5t-72 29.5t-31 72.5zM90 799q0 43 31 72.5t72 29.5t71.5 -29.5t30.5 -72.5t-30.5 -73t-71.5 -30t-72 30t-31 73z" />
<glyph unicode=";" horiz-adv-x="466" d="M-31 -229l172 456h203l-240 -456h-135zM131 799q0 43 30.5 72.5t71.5 29.5t72 -29.5t31 -72.5t-31 -73t-72 -30t-71.5 30t-30.5 73z" />
<glyph unicode="&#x3c;" horiz-adv-x="847" d="M90 674v110l651 402v-160l-489 -297l489 -295v-160z" />
<glyph unicode="=" horiz-adv-x="872" d="M86 487v142h700v-142h-700zM86 823v142h700v-142h-700z" />
<glyph unicode="&#x3e;" horiz-adv-x="845" d="M106 274v160l490 295l-490 297v160l652 -402v-110z" />
<glyph unicode="?" horiz-adv-x="811" d="M100 1178v180q124 100 291 100q78 0 141 -21t100.5 -53t62.5 -73t34.5 -77.5t9.5 -70.5q0 -74 -13.5 -126.5t-56.5 -103.5t-76.5 -78.5t-118.5 -91.5q-11 -9 -17 -13q-62 -45 -96.5 -87.5t-34.5 -91.5q0 -104 114 -104q81 0 146 37v-158q-64 -27 -146 -27q-124 0 -199 69 t-75 183q0 152 182 283q49 34 70.5 49.5t55 42.5t47.5 45.5t31 45.5t22.5 56t5.5 64q0 10 -1.5 22.5t-12 38t-29 44.5t-56.5 34t-90 15q-155 0 -291 -133zM291 72q0 43 30.5 72.5t71.5 29.5t72 -29.5t31 -72.5t-31 -73t-72 -30t-71.5 30t-30.5 73z" />
<glyph unicode="@" horiz-adv-x="1644" d="M78 598q0 142 55.5 277t151 238.5t236.5 166.5t300 63q146 0 282 -54t238.5 -147t164 -226.5t61.5 -282.5q0 -208 -82.5 -320t-229.5 -112q-78 0 -133.5 35.5t-81.5 101.5q-89 -109 -225 -109q-148 0 -250 103t-102 256t101.5 255.5t250.5 102.5q126 0 205 -90v72h139 v-469q0 -45 10 -74t28 -39.5t29.5 -13t28.5 -2.5q18 0 31.5 2.5t36 10.5t39 28.5t32.5 51.5t24.5 85t8.5 125q0 158 -81.5 292t-221 211.5t-303.5 77.5q-122 0 -234 -49t-193 -131.5t-129 -196.5t-48 -239q0 -166 81 -307.5t220.5 -224t302.5 -82.5q150 0 283 79l65 -122 q-160 -86 -348 -86q-141 0 -275.5 55.5t-238 151.5t-166.5 236.5t-63 299.5zM600 588q0 -96 61 -159.5t154 -63.5q91 0 153 64t62 159q0 97 -62 161t-153 64q-94 0 -154.5 -63.5t-60.5 -161.5z" />
<glyph unicode="A" horiz-adv-x="1474" d="M72 0l604 1427h123l604 -1427h-172l-148 352h-692l-147 -352h-172zM453 500h569l-285 680z" />
<glyph unicode="B" horiz-adv-x="1212" d="M188 0v1427h437q162 0 272.5 -103.5t110.5 -260.5q0 -102 -48 -177.5t-135 -109.5q138 -29 212.5 -123.5t74.5 -230.5q0 -182 -123.5 -302t-310.5 -120h-490zM348 147h320q123 0 203.5 78t80.5 197q0 115 -80.5 190.5t-205.5 75.5h-318v-541zM348 831h266 q101 0 167.5 64.5t66.5 161.5q0 96 -65.5 159.5t-166.5 63.5h-268v-449z" />
<glyph unicode="C" horiz-adv-x="1456" d="M96 713q0 157 58.5 295.5t158.5 236t237 153.5t290 56q162 0 301.5 -63t242.5 -179l-108 -98q-79 92 -191 142.5t-245 50.5q-166 0 -299.5 -77t-209 -213t-75.5 -304t75.5 -304t209 -213t299.5 -77q134 0 249 52t193 148l109 -98q-102 -119 -245 -184.5t-306 -65.5 q-204 0 -374.5 95.5t-270 266t-99.5 380.5z" />
<glyph unicode="D" horiz-adv-x="1486" d="M188 0v1427h459q342 0 539.5 -196.5t197.5 -517.5t-196.5 -517t-538.5 -196h-461zM348 147h289q146 0 259 41.5t184.5 117t108 178.5t36.5 229q0 260 -150 413.5t-440 153.5h-287v-1133z" />
<glyph unicode="E" horiz-adv-x="1124" d="M188 0v1427h807v-147h-647v-453h608v-147h-608v-533h662v-147h-822z" />
<glyph unicode="F" horiz-adv-x="1036" d="M188 0v1427h746v-147h-586v-461h535v-147h-535v-672h-160z" />
<glyph unicode="G" horiz-adv-x="1515" d="M96 713q0 157 58.5 295.5t158.5 236t237 153.5t290 56q292 0 493 -186l-100 -111q-163 150 -393 150q-251 0 -417.5 -170t-166.5 -424q0 -168 75.5 -304t209 -213t299.5 -77q229 0 391 143v369h-436v147h596v-571q-104 -112 -246.5 -174t-304.5 -62q-204 0 -374.5 95.5 t-270 266t-99.5 380.5z" />
<glyph unicode="H" horiz-adv-x="1488" d="M188 0v1427h160v-596h793v596h159v-1427h-159v684h-793v-684h-160z" />
<glyph unicode="I" horiz-adv-x="552" d="M197 0v1427h159v-1427h-159z" />
<glyph unicode="J" horiz-adv-x="634" d="M29 -10v151q52 -20 108 -20q50 0 83 20.5t49 60t22 82.5t6 103v1040h160v-1034q0 -51 -2 -89.5t-9.5 -85t-20 -80t-36 -67t-55.5 -54t-79.5 -33.5t-107.5 -13q-56 0 -118 19z" />
<glyph unicode="K" horiz-adv-x="1306" d="M188 0v1427h160v-757l686 757h197l-569 -622l585 -805h-192l-500 688l-207 -225v-463h-160z" />
<glyph unicode="L" horiz-adv-x="1015" d="M188 0v1427h160v-1280h588v-147h-748z" />
<glyph unicode="M" horiz-adv-x="1759" d="M188 0v1427h148l545 -905l544 905h146v-1427h-158v1112l-532 -872l-535 870v-1110h-158z" />
<glyph unicode="N" horiz-adv-x="1538" d="M188 0v1427h140l862 -1142v1142h160v-1427h-129l-873 1155v-1155h-160z" />
<glyph unicode="O" horiz-adv-x="1679" d="M96 713q0 157 58.5 295.5t158.5 236t237 153.5t290 56t290 -56t236.5 -153.5t158 -236t58.5 -295.5q0 -210 -99.5 -380.5t-269.5 -266t-374 -95.5t-374.5 95.5t-270 266t-99.5 380.5zM254 713q0 -168 76 -304t210 -213t300 -77q124 0 232.5 45.5t185.5 124t121 188.5 t44 236t-44 236t-121 188.5t-185.5 124t-232.5 45.5q-166 0 -300 -77t-210 -213t-76 -304z" />
<glyph unicode="P" horiz-adv-x="1173" d="M188 0v1427h457q119 0 219 -56t158.5 -156t58.5 -222q0 -187 -127 -310.5t-309 -123.5h-297v-559h-160zM348 707h291q122 0 202.5 81.5t80.5 204.5t-81 205t-202 82h-291v-573z" />
<glyph unicode="Q" horiz-adv-x="1679" d="M96 713q0 157 58.5 295.5t158.5 236t237 153.5t290 56t290 -56t236.5 -153.5t158 -236t58.5 -295.5q0 -155 -55 -289.5t-154 -235.5l152 -186l-113 -92l-151 186q-186 -125 -422 -125q-204 0 -374.5 95.5t-270 266t-99.5 380.5zM254 713q0 -168 76 -304t210 -213t300 -77 q178 0 325 94l-233 287l112 92l232 -285q147 166 147 406q0 126 -44 236t-121 188.5t-185.5 124t-232.5 45.5q-166 0 -300 -77t-210 -213t-76 -304z" />
<glyph unicode="R" d="M188 0v1427h488q179 0 303.5 -121.5t124.5 -304.5q0 -140 -75.5 -249t-197.5 -156l345 -596h-183l-321 565h-2h-322v-565h-160zM348 713h311q123 0 204 82t81 206q0 119 -78 199t-196 80h-322v-567z" />
<glyph unicode="S" horiz-adv-x="1126" d="M84 313l137 64q106 -258 359 -258q74 0 129 19.5t84 47t46.5 65.5t22 65t4.5 55q0 42 -8.5 76t-30 62.5t-44.5 50t-65 45.5t-77 40.5t-94 42.5q-76 34 -123.5 58t-101 61.5t-82.5 76t-48.5 94t-19.5 122.5q0 154 111 254t280 100q261 0 385 -227l-137 -70 q-41 77 -100 113.5t-150 36.5q-95 0 -162 -57.5t-67 -145.5q0 -44 14 -79.5t35 -60t60 -49.5t74 -42t92 -43q11 -5 16 -7q109 -49 175.5 -87t122.5 -90.5t80.5 -118.5t24.5 -154q0 -177 -117.5 -289.5t-330.5 -112.5q-171 0 -301.5 85.5t-192.5 256.5z" />
<glyph unicode="T" horiz-adv-x="1060" d="M61 1280v147h938v-147h-389v-1280h-159v1280h-390z" />
<glyph unicode="U" horiz-adv-x="1425" d="M178 500v927h160v-911q0 -192 100 -292.5t275 -100.5q174 0 274 100.5t100 292.5v911h160v-927q0 -127 -40 -227.5t-112 -165t-169 -98.5t-213 -34q-156 0 -275 58t-189.5 178.5t-70.5 288.5z" />
<glyph unicode="V" horiz-adv-x="1452" d="M72 1427h174l481 -1159l479 1159h174l-598 -1427h-112z" />
<glyph unicode="W" horiz-adv-x="1884" d="M55 1427h162l318 -1079l352 1079h110l353 -1079l317 1079h162l-418 -1427h-102l-367 1104l-367 -1104h-102z" />
<glyph unicode="X" horiz-adv-x="1337" d="M86 0l479 739l-450 688h178l377 -579l374 579h173l-449 -690l483 -737h-180l-409 627l-406 -627h-170z" />
<glyph unicode="Y" horiz-adv-x="1273" d="M57 1427h176l408 -684l403 684h173l-498 -841v-586h-160v586z" />
<glyph unicode="Z" horiz-adv-x="1290" d="M90 0v98l877 1182h-777v147h992v-106l-871 -1174h885v-147h-1106z" />
<glyph unicode="[" horiz-adv-x="628" d="M172 -395v1822h461v-147h-301v-1528h301v-147h-461z" />
<glyph unicode="\" horiz-adv-x="864" d="M53 1481h142l643 -1760h-142z" />
<glyph unicode="]" horiz-adv-x="628" d="M-4 -248h301v1528h-301v147h461v-1822h-461v147z" />
<glyph unicode="^" horiz-adv-x="1064" d="M47 717l428 710h115l428 -710h-162l-324 549l-325 -549h-160z" />
<glyph unicode="_" horiz-adv-x="606" d="M-4 -254h614v-141h-614v141z" />
<glyph unicode="`" horiz-adv-x="1101" d="M319 1427h203l109 -297h-121z" />
<glyph unicode="a" horiz-adv-x="1288" d="M72 516q0 154 70 280t189.5 196.5t262.5 70.5q139 0 230.5 -53.5t136.5 -130.5v153h151v-801q0 -68 18 -98.5t60 -30.5q25 0 53 4v-114q-40 -17 -96 -17q-68 0 -109 29q-59 44 -69 148q-51 -79 -144 -131t-231 -52q-143 0 -262.5 70.5t-189.5 196.5t-70 280zM223 516 q0 -174 105.5 -289.5t265.5 -115.5q166 0 275.5 115.5t109.5 289.5t-110 290t-275 116q-159 0 -265 -116t-106 -290z" />
<glyph unicode="b" horiz-adv-x="1228" d="M117 0v1427h151v-548q45 77 136.5 130.5t230.5 53.5q143 0 262.5 -70.5t189.5 -196.5t70 -280t-70 -280t-189.5 -196.5t-262.5 -70.5q-139 0 -230.5 53.5t-136.5 131.5v-154h-151zM250 516q0 -174 109.5 -289.5t275.5 -115.5q160 0 265.5 115.5t105.5 289.5t-106 290 t-265 116q-165 0 -275 -116t-110 -290z" />
<glyph unicode="c" horiz-adv-x="1058" d="M72 516q0 154 74 280t199.5 196.5t275.5 70.5q238 0 391 -156l-92 -106q-118 121 -299 121q-171 0 -284.5 -116t-113.5 -290t113.5 -289.5t284.5 -115.5q182 0 299 120l92 -106q-153 -156 -391 -156q-150 0 -275.5 70.5t-199.5 196.5t-74 280z" />
<glyph unicode="d" horiz-adv-x="1288" d="M72 516q0 154 70 280t189.5 196.5t262.5 70.5q139 0 230.5 -53.5t136.5 -130.5v548h151v-1196q0 -68 18 -98.5t60 -30.5q25 0 53 4v-114q-40 -17 -96 -17q-68 0 -109 29q-59 44 -69 148q-51 -79 -144 -131t-231 -52q-143 0 -262.5 70.5t-189.5 196.5t-70 280zM223 516 q0 -174 105.5 -289.5t265.5 -115.5q166 0 275.5 115.5t109.5 289.5t-110 290t-275 116q-159 0 -265 -116t-106 -290z" />
<glyph unicode="e" horiz-adv-x="1128" d="M72 504v8q0 247 146 399t370 152q211 0 343 -148t132 -366q0 -35 -2 -66h-838q6 -170 106 -271t263 -101q106 0 176.5 34.5t140.5 108.5l101 -98q-91 -101 -193.5 -142t-224.5 -41q-232 0 -376 145.5t-144 385.5zM233 616h668q0 125 -91.5 215.5t-221.5 90.5 q-140 0 -243.5 -90t-111.5 -216z" />
<glyph unicode="f" horiz-adv-x="641" d="M63 891v141h166v86q0 111 24 174.5t77 106.5q42 37 94 48t117 11q48 0 80 -8v-143q-39 10 -97 10q-75 0 -109 -40.5t-34 -137.5v-107h194v-141h-194v-891h-152v891h-166z" />
<glyph unicode="g" horiz-adv-x="1228" d="M72 524q0 114 41 215t111.5 171.5t166.5 111.5t203 41q139 0 230.5 -53.5t136.5 -130.5v153h151v-860q0 -78 -2 -128.5t-11.5 -112.5t-26.5 -105.5t-48 -88t-76 -79.5q-137 -109 -348 -109q-271 0 -489 158l77 121q94 -68 191.5 -102.5t218.5 -34.5q162 0 256 76 q64 53 85.5 133.5t21.5 185.5v86q-45 -77 -136.5 -130.5t-230.5 -53.5q-143 0 -262.5 68.5t-189.5 192t-70 275.5zM223 524q0 -170 105.5 -282.5t265.5 -112.5q166 0 275.5 112.5t109.5 282.5q0 171 -109.5 284.5t-275.5 113.5q-160 0 -265.5 -113.5t-105.5 -284.5z" />
<glyph unicode="h" horiz-adv-x="1120" d="M117 0v1427h151v-569q40 87 122.5 139t195.5 52q170 0 270 -107.5t100 -282.5v-426q0 -62 14.5 -85t57.5 -23q15 0 39 4v-125q-25 -10 -66 -10q-28 0 -51 3.5t-51.5 17t-47.5 37t-32.5 67.5t-13.5 104v404q0 130 -68 205t-188 75q-124 0 -202.5 -80.5t-78.5 -210.5v-616 h-151z" />
<glyph unicode="i" horiz-adv-x="434" d="M92 1307q0 43 31 72.5t72 29.5t71.5 -29.5t30.5 -72.5t-30.5 -73t-71.5 -30t-72 30t-31 73zM119 195v837h151v-811q0 -58 17.5 -83t60.5 -25q25 0 53 4v-125q-40 -17 -96 -17q-26 0 -48 3.5t-49 17t-45.5 36t-31 64.5t-12.5 99z" />
<glyph unicode="j" horiz-adv-x="385" d="M-98 -279q35 -6 71 -6q75 0 109.5 41t34.5 138v1138h151v-1138q0 -320 -311 -320q-31 0 -55 4v143zM90 1303q0 43 31 72.5t72 29.5t71.5 -29.5t30.5 -72.5t-30.5 -73t-71.5 -30t-72 30t-31 73z" />
<glyph unicode="k" horiz-adv-x="954" d="M117 0v1427h151v-905l443 510h174l-391 -452l446 -580h-180l-363 471l-129 -149v-322h-151z" />
<glyph unicode="l" horiz-adv-x="532" d="M119 260v1167h151v-1157q0 -86 29 -122.5t100 -36.5q51 0 74 4v-129q-30 -17 -94 -17q-37 0 -67 4.5t-68 22t-63.5 47t-43.5 85.5t-18 132z" />
<glyph unicode="m" horiz-adv-x="1683" d="M117 0v1032h151v-174q37 87 112 139t179 52q108 0 186 -54t117 -151q43 97 126.5 151t195.5 54q155 0 245.5 -107.5t90.5 -282.5v-426q0 -62 14 -85t57 -23q15 0 39 4v-125q-25 -10 -65 -10q-28 0 -51 3.5t-51.5 17t-48 37t-33 67.5t-13.5 104v404q0 130 -60 205t-165 75 q-107 0 -176.5 -81t-69.5 -210v-616h-152v627q0 130 -60.5 205t-168.5 75q-107 0 -177.5 -81t-70.5 -210v-616h-151z" />
<glyph unicode="n" horiz-adv-x="1134" d="M117 0v1032h151v-174q41 87 125.5 139t200.5 52q173 0 275 -107.5t102 -282.5v-426q0 -63 13.5 -85.5t57.5 -22.5q15 0 39 4v-125q-25 -10 -65 -10q-28 0 -51 3.5t-51.5 17t-48 37t-33 67.5t-13.5 104v404q0 129 -70.5 204.5t-193.5 75.5q-127 0 -207 -80.5t-80 -210.5 v-616h-151z" />
<glyph unicode="o" d="M72 516q0 154 74 280t199.5 196.5t275.5 70.5t275.5 -70.5t199 -196.5t73.5 -280t-73.5 -280t-199 -196.5t-275.5 -70.5t-275.5 70.5t-199.5 196.5t-74 280zM223 516q0 -174 113.5 -289.5t284.5 -115.5t284 115.5t113 289.5t-113 290t-284 116t-284.5 -116t-113.5 -290z " />
<glyph unicode="p" horiz-adv-x="1228" d="M117 -395v1427h151v-153q45 77 136.5 130.5t230.5 53.5q143 0 262.5 -70.5t189.5 -196.5t70 -280t-70 -280t-189.5 -196.5t-262.5 -70.5q-139 0 -230.5 53.5t-136.5 131.5v-549h-151zM250 516q0 -174 109.5 -289.5t275.5 -115.5q160 0 265.5 115.5t105.5 289.5t-106 290 t-265 116q-165 0 -275 -116t-110 -290z" />
<glyph unicode="q" horiz-adv-x="1228" d="M72 516q0 154 70 280t189.5 196.5t262.5 70.5q139 0 230.5 -53.5t136.5 -130.5v153h151v-1427h-151v549q-45 -78 -136.5 -131.5t-230.5 -53.5q-143 0 -262.5 70.5t-189.5 196.5t-70 280zM223 516q0 -174 105.5 -289.5t265.5 -115.5q166 0 275.5 115.5t109.5 289.5 t-110 290t-275 116q-159 0 -265 -116t-106 -290z" />
<glyph unicode="r" horiz-adv-x="739" d="M117 0v1032h151v-174q40 87 122.5 139t195.5 52q28 0 63 -5v-163q-42 10 -102 10q-121 0 -200 -81t-79 -210v-600h-151z" />
<glyph unicode="s" horiz-adv-x="847" d="M37 223l129 49q21 -65 87 -110t173 -45q67 0 115 15.5t70.5 41.5t32 50t9.5 50q0 33 -12.5 60t-30 45.5t-56 39.5t-69 34t-90.5 36q-68 27 -114 52.5t-86.5 61t-60 82t-19.5 106.5q0 120 87 196t224 76q209 0 299 -178l-123 -64q-29 52 -70 77.5t-104 25.5 q-71 0 -116.5 -35t-45.5 -98t54.5 -103t171.5 -84q159 -61 236 -136t77 -194q0 -57 -23 -109t-67.5 -95t-119.5 -69t-169 -26q-146 0 -252 64.5t-137 183.5z" />
<glyph unicode="t" horiz-adv-x="630" d="M61 891v141h121v395h152v-395h239v-141h-239v-602q0 -98 34 -138t109 -40q57 0 96 6v-131q-38 -17 -114 -17q-277 0 -277 320v602h-121z" />
<glyph unicode="u" horiz-adv-x="1120" d="M104 373v659h152v-626q0 -130 68.5 -205.5t187.5 -75.5q124 0 202.5 80.5t78.5 210.5v616h151v-792q0 -68 18 -98.5t60 -30.5q25 0 53 4v-115q-33 -16 -96 -16q-85 0 -127 47q-37 42 -47 102q-41 -63 -123.5 -106t-206.5 -43q-170 0 -270.5 107t-100.5 282z" />
<glyph unicode="v" horiz-adv-x="1048" d="M31 1032h159l334 -786l334 786h162l-442 -1032h-105z" />
<glyph unicode="w" horiz-adv-x="1527" d="M31 1032h155l267 -745l258 745h106l256 -745l266 745h158l-373 -1032h-100l-260 752l-260 -752h-101z" />
<glyph unicode="x" horiz-adv-x="1050" d="M51 0l393 549l-360 483h168l272 -366l273 366h168l-359 -481l393 -551h-165l-308 432l-309 -432h-166z" />
<glyph unicode="y" horiz-adv-x="1032" d="M31 1032h151l340 -870l328 870h151l-466 -1208q-45 -113 -101 -174q-75 -78 -201 -78q-59 0 -102 18v140q47 -17 102 -17q52 0 89 23q43 30 81 125l46 116z" />
<glyph unicode="z" horiz-adv-x="1021" d="M57 0v90l633 801h-565v141h780v-100l-629 -791h662v-141h-881z" />
<glyph unicode="{" horiz-adv-x="651" d="M57 467v98q48 2 93 29q81 49 81 182v389q0 114 69.5 188t176.5 74h92v-120h-75q-57 0 -84 -42t-27 -100v-366q0 -156 -70 -226q-36 -36 -82 -57q46 -21 82 -57q70 -70 70 -226v-366q0 -58 27 -99.5t84 -41.5h75v-121h-92q-107 0 -176.5 74t-69.5 188v389q0 133 -81 182 q-20 12 -43 19t-37 9z" />
<glyph unicode="|" horiz-adv-x="507" d="M178 -51v1530h152v-1530h-152z" />
<glyph unicode="}" horiz-adv-x="651" d="M82 -274h76q57 0 83.5 41.5t26.5 99.5v366q0 156 70 226q36 36 82 57q-46 21 -82 57q-70 70 -70 226v366q0 59 -26.5 100.5t-83.5 41.5h-76v120h92q107 0 176.5 -74t69.5 -188v-389q0 -133 82 -182q20 -12 43 -19t36 -9l13 -1v-98q-47 -2 -92 -29q-82 -49 -82 -182v-389 q0 -114 -69.5 -188t-176.5 -74h-92v121z" />
<glyph unicode="~" horiz-adv-x="856" d="M57 621q11 82 65.5 135t139.5 53q59 0 118 -20t111 -40t93 -20q86 0 114 84l101 -8q-26 -201 -209 -201q-62 0 -121 20t-110 40t-93 20q-88 0 -108 -72z" />
<glyph unicode="&#xa1;" horiz-adv-x="491" d="M143 944q0 43 31 73t72 30t71.5 -30t30.5 -73t-30.5 -72.5t-71.5 -29.5t-72 29.5t-31 72.5zM150 -412l32 1110h127l33 -1110h-192z" />
<glyph unicode="&#xa2;" horiz-adv-x="1091" d="M78 719q0 114 37 209t95 156t132.5 103.5t146.5 60.5t140 18h20l33 161h139l-39 -180q142 -36 240 -129l-92 -106q-72 72 -176 96l-164 -793q1 0 7.5 -1t17 -2t22.5 -1q174 0 291 115l94 -109q-85 -81 -192.5 -113t-204.5 -32q-36 0 -64 4l-37 -176h-139l45 209 q-158 57 -255 193.5t-97 316.5zM229 719q0 -126 62.5 -225.5t167.5 -145.5l162 776h-3q-169 -3 -279 -118t-110 -287z" />
<glyph unicode="&#xa3;" horiz-adv-x="1200" d="M82 0v137h18q101 0 173 28.5t108.5 76t52 97.5t15.5 105q0 62 -52 164h-211v148h129q-98 170 -98 282q0 173 123.5 296.5t296.5 123.5t296.5 -123.5t123.5 -296.5h-158q0 110 -76 191.5t-184 81.5q-109 0 -185.5 -80t-76.5 -193q0 -96 115 -282h313v-148h-236 q39 -90 39 -164q0 -108 -35 -184.5t-86 -112.5h623v-147h-1028z" />
<glyph unicode="&#xa4;" horiz-adv-x="1320" d="M109 213l178 166q-107 128 -107 303q0 172 107 303l-178 168l104 102l162 -186q129 96 287 96q156 0 288 -96l162 186l105 -102l-181 -166q109 -134 109 -305q0 -172 -109 -303l181 -168l-105 -100q-103 110 -164 182q-124 -92 -286 -92q-164 0 -289 96l-160 -186z M324 682q0 -144 99 -246t239 -102t239.5 102t99.5 246q0 145 -99.5 247.5t-239.5 102.5t-239 -102.5t-99 -247.5z" />
<glyph unicode="&#xa5;" horiz-adv-x="1257" d="M49 1427h176l408 -684l403 684h172l-307 -520h244v-147h-332l-106 -180h438v-148h-434v-432h-160v432h-434v148h438l-109 180h-329v147h243z" />
<glyph unicode="&#xa6;" horiz-adv-x="507" d="M178 0v602h152v-602h-152zM178 850v577h152v-577h-152z" />
<glyph unicode="&#xa7;" horiz-adv-x="1058" d="M63 606q0 111 53 182.5t130 110.5q-88 91 -88 229q0 144 101.5 237t254.5 93q171 0 264.5 -107t93.5 -272h-159q0 30 -4 57.5t-17 60.5t-33.5 57t-58 40.5t-86.5 16.5q-80 0 -138.5 -47.5t-58.5 -135.5q0 -30 5.5 -54t19 -44.5t27 -35.5t40.5 -32t47.5 -28.5t57.5 -30.5 q245 -123 330 -196q133 -118 133 -281q0 -107 -51 -180t-131 -113q88 -91 88 -229q0 -145 -102.5 -237.5t-254.5 -92.5q-168 0 -263 106t-95 273h160q0 -30 4 -57.5t16.5 -61t33 -57t58 -40t86.5 -16.5q80 0 138.5 47.5t58.5 135.5q0 26 -6.5 49.5t-15.5 41.5t-28.5 37 t-34 31t-45 30t-48.5 27.5t-56 29.5q-217 111 -292 176q-134 119 -134 280zM223 606q0 -29 7.5 -55t19 -47.5t35 -44.5t45 -40t59.5 -40.5t68.5 -40.5t81.5 -45q47 -22 100 -53q178 41 178 186q0 34 -8.5 62.5t-29.5 55.5t-43 48.5t-64 48t-76 46.5t-94 52q-48 23 -101 54 q-178 -41 -178 -187z" />
<glyph unicode="&#xa8;" d="M307 1303q0 43 31 72.5t72 29.5t71.5 -29.5t30.5 -72.5t-30.5 -73t-71.5 -30t-72 30t-31 73zM729 1303q0 43 30.5 72.5t71.5 29.5t72 -29.5t31 -72.5t-31 -73t-72 -30t-71.5 30t-30.5 73z" />
<glyph unicode="&#xa9;" horiz-adv-x="1662" d="M86 713q0 151 59 288.5t159 237t238 158.5t289 59q202 0 373.5 -99.5t272 -270.5t100.5 -373q0 -151 -59.5 -289t-159.5 -238t-238 -159.5t-289 -59.5t-289 59.5t-238 159.5t-159 238t-59 289zM176 713q0 -134 52 -257t140 -211.5t209 -141t254 -52.5q177 0 328 88.5 t239.5 241.5t88.5 332t-88.5 331t-239.5 240t-328 88t-328 -88t-239 -240t-88 -331zM428 723q0 177 120.5 294.5t295.5 117.5q181 0 311 -127l-94 -103q-97 90 -217 90q-115 0 -190.5 -78t-75.5 -194q0 -117 75.5 -194.5t190.5 -77.5q125 0 217 92l94 -109 q-125 -125 -311 -125q-175 0 -295.5 118.5t-120.5 295.5z" />
<glyph unicode="&#xaa;" horiz-adv-x="915" d="M96 870q0 105 80.5 169.5t229.5 68.5q105 3 144.5 23t39.5 79q0 36 -16 61t-42 36t-48 15.5t-44 4.5q-124 0 -211 -108l-88 73q108 154 299 154q121 0 193 -65t72 -171v-403q0 -25 9.5 -37t22.5 -12h43v-84q-33 -21 -75 -21q-47 0 -68 25q-21 23 -29 55q-76 -88 -243 -88 q-120 0 -194.5 61.5t-74.5 163.5zM213 874q0 -54 43.5 -84t118.5 -30q102 0 158.5 43t56.5 115v120q-42 -36 -184 -39q-193 -7 -193 -125z" />
<glyph unicode="&#xab;" horiz-adv-x="847" d="M72 518l225 359h160l-226 -359l226 -358h-160zM391 518l225 359h160l-225 -359l225 -358h-160z" />
<glyph unicode="&#xac;" horiz-adv-x="1163" d="M86 782v142h991v-553h-155v411h-836z" />
<glyph unicode="&#xad;" horiz-adv-x="786" d="M86 469v141h614v-141h-614z" />
<glyph unicode="&#xae;" horiz-adv-x="806" d="M72 1133q0 141 95.5 233t233.5 92q140 0 237 -92t97 -233t-97 -233.5t-237 -92.5q-138 0 -233.5 92.5t-95.5 233.5zM137 1133q0 -116 74.5 -190.5t189.5 -74.5t191 74.5t76 190.5q0 119 -76 193.5t-191 74.5t-189.5 -74.5t-74.5 -193.5zM281 952v375h133q54 0 87.5 -33 t33.5 -84q0 -71 -62 -108l90 -150h-82l-82 138h-49v-138h-69zM350 1147h62q23 0 38 17t15 42q0 24 -15 40t-38 16h-62v-115z" />
<glyph unicode="&#xaf;" horiz-adv-x="1269" d="M334 1286v141h602v-141h-602z" />
<glyph unicode="&#xb0;" horiz-adv-x="737" d="M98 1163q0 113 79 192t192 79q112 0 191 -79t79 -192t-78.5 -191.5t-191.5 -78.5t-192 79t-79 191zM244 1163q0 -55 37 -95t88 -40t88 40t37 95t-37 95t-88 40t-88 -40t-37 -95z" />
<glyph unicode="&#xb1;" horiz-adv-x="786" d="M86 0v141h614v-141h-614zM86 641v141h229v254h156v-254h229v-141h-229v-252h-156v252h-229z" />
<glyph unicode="&#xb2;" horiz-adv-x="665" d="M90 672v82l313 362q50 60 50 107q0 45 -33 77.5t-78 32.5q-46 0 -78.5 -38t-32.5 -91h-114q0 100 65.5 170t159.5 70t160.5 -64.5t66.5 -156.5q0 -30 -2.5 -49t-18.5 -54.5t-48 -72.5l-238 -265h326v-110h-498z" />
<glyph unicode="&#xb3;" horiz-adv-x="708" d="M53 842l103 39q20 -53 68 -83t112 -30q76 0 124 42t48 108q0 67 -49.5 111t-130.5 44q-75 0 -107 -16l-41 53l217 209h-272v108h459v-67l-207 -191q41 0 82 -12q72 -27 117 -92t45 -147q0 -115 -80.5 -189t-204.5 -74q-99 0 -175.5 51t-107.5 136z" />
<glyph unicode="&#xb4;" horiz-adv-x="1101" d="M473 1130l109 297h202l-190 -297h-121z" />
<glyph unicode="&#xb6;" horiz-adv-x="1103" d="M57 987q0 183 129 311.5t312 128.5h583v-147h-135v-1280h-160v1280h-151v-1280h-160v547q-175 9 -296.5 136t-121.5 304z" />
<glyph unicode="&#xb7;" horiz-adv-x="385" d="M90 516q0 43 31 72.5t72 29.5t71.5 -29.5t30.5 -72.5t-30.5 -72.5t-71.5 -29.5t-72 29.5t-31 72.5z" />
<glyph unicode="&#xb8;" horiz-adv-x="1083" d="M360 -358l39 79q55 -34 111 -34q39 0 64.5 20t25.5 53q0 49 -36 66.5t-113 17.5l65 156h115l-43 -94q57 0 96 -40t39 -106q0 -166 -211 -166q-42 0 -85 14.5t-67 33.5z" />
<glyph unicode="&#xb9;" horiz-adv-x="454" d="M82 1319v108h215v-755h-117v647h-98z" />
<glyph unicode="&#xba;" horiz-adv-x="933" d="M68 1049q0 166 117 281.5t282 115.5t282 -115.5t117 -281.5t-117 -282t-282 -116t-282 116t-117 282zM203 1049q0 -111 77.5 -192t186.5 -81t186.5 81t77.5 192t-77 191.5t-187 80.5t-187 -80.5t-77 -191.5z" />
<glyph unicode="&#xbb;" horiz-adv-x="847" d="M72 160l225 358l-225 359h159l226 -359l-226 -358h-159zM391 160l225 358l-225 359h160l225 -359l-225 -358h-160z" />
<glyph unicode="&#xbc;" horiz-adv-x="1376" d="M123 1319v108h215v-755h-117v647h-98zM160 0l798 1427h152l-799 -1427h-151zM702 150v79l263 527h120l-247 -496h282v152h117v-412h-117v150h-418z" />
<glyph unicode="&#xbd;" horiz-adv-x="1441" d="M123 1319v108h215v-755h-117v647h-98zM160 0l798 1427h152l-799 -1427h-151zM825 0v82l314 362q49 58 49 107q0 45 -33 78t-78 33t-77.5 -38.5t-32.5 -91.5h-115q0 100 65.5 170t159.5 70t161 -64.5t67 -156.5q0 -29 -3 -49t-19 -55t-48 -72l-238 -264h326v-111h-498z " />
<glyph unicode="&#xbe;" horiz-adv-x="1576" d="M74 842l102 39q20 -53 68 -83t112 -30q76 0 124 42t48 108q0 67 -49.5 111t-130.5 44q-74 0 -106 -16l-41 53l217 209h-273v108h459v-67l-207 -191q41 0 82 -12q72 -27 117 -92t45 -147q0 -115 -80.5 -189t-204.5 -74q-99 0 -175 51t-107 136zM360 0l799 1427h152 l-799 -1427h-152zM903 150v79l262 527h121l-248 -496h283v152h117v-412h-117v150h-418z" />
<glyph unicode="&#xbf;" horiz-adv-x="811" d="M72 -147q0 74 13.5 126.5t56.5 103.5t76.5 78.5t118.5 91.5l6 4.5t5 4t6 4.5q62 45 96.5 87t34.5 91q0 105 -114 105q-81 0 -146 -37v158q62 26 146 26q124 0 199 -69t75 -183q0 -151 -182 -282q-49 -34 -70.5 -49.5t-55 -42.5t-47.5 -45.5t-31 -45.5t-22.5 -56t-5.5 -64 q0 -10 1.5 -22.5t12 -38t29 -44.5t56.5 -34t90 -15q154 0 291 133v-180q-124 -100 -291 -100q-78 0 -141 21t-100.5 53t-62.5 73t-34.5 77.5t-9.5 70.5zM315 944q0 43 31 73t72 30t71.5 -30t30.5 -73t-30.5 -72.5t-71.5 -29.5t-72 29.5t-31 72.5z" />
<glyph unicode="&#xc0;" horiz-adv-x="1474" d="M72 0l604 1427h123l604 -1427h-172l-148 352h-692l-147 -352h-172zM453 500h569l-285 680zM500 1823h202l109 -297h-121z" />
<glyph unicode="&#xc1;" horiz-adv-x="1474" d="M72 0l604 1427h123l604 -1427h-172l-148 352h-692l-147 -352h-172zM453 500h569l-285 680zM657 1526l109 297h203l-191 -297h-121z" />
<glyph unicode="&#xc2;" horiz-adv-x="1474" d="M72 0l604 1427h123l604 -1427h-172l-148 352h-692l-147 -352h-172zM416 1575l258 248h127l258 -248h-187l-135 135l-135 -135h-186zM453 500h569l-285 680z" />
<glyph unicode="&#xc3;" horiz-adv-x="1474" d="M72 0l604 1427h123l604 -1427h-172l-148 352h-692l-147 -352h-172zM436 1561q9 82 59 135t126 53q44 0 88 -20t82 -40t69 -20q38 0 61 20t33 64l101 -8q-23 -201 -189 -201q-46 0 -90 20t-81.5 40t-69.5 20q-71 0 -88 -72zM453 500h569l-285 680z" />
<glyph unicode="&#xc4;" horiz-adv-x="1474" d="M72 0l604 1427h123l604 -1427h-172l-148 352h-692l-147 -352h-172zM424 1626q0 43 30.5 73t71.5 30t72 -30t31 -73t-31 -72.5t-72 -29.5t-71.5 29.5t-30.5 72.5zM453 500h569l-285 680zM846 1626q0 43 30.5 73t71.5 30t72 -30t31 -73t-31 -72.5t-72 -29.5t-71.5 29.5 t-30.5 72.5z" />
<glyph unicode="&#xc5;" horiz-adv-x="1435" d="M72 0l594 1362q-64 18 -106 71t-42 121q0 82 59 140.5t142 58.5q82 0 140.5 -58.5t58.5 -140.5q0 -69 -42 -122.5t-108 -71.5l596 -1360h-174l-154 352h-643l-153 -352h-168zM457 500h516l-258 606zM623 1554q0 -38 29 -67t67 -29t66 29t28 67t-28 66.5t-66 28.5 t-67 -28.5t-29 -66.5z" />
<glyph unicode="&#xc6;" horiz-adv-x="1822" d="M-33 0l1094 1427h635v-147h-516v-453h477v-147h-477v-533h530v-147h-690v352h-582l-270 -352h-201zM551 500h469v624z" />
<glyph unicode="&#xc7;" horiz-adv-x="1456" d="M96 713q0 157 58.5 295.5t158.5 236t237 153.5t290 56q162 0 301.5 -63t242.5 -179l-108 -98q-79 92 -191 142.5t-245 50.5q-166 0 -299.5 -77t-209 -213t-75.5 -304t75.5 -304t209 -213t299.5 -77q134 0 249 52t193 148l109 -98q-102 -119 -245 -184.5t-306 -65.5 q-36 0 -54 2l-30 -67q57 0 96 -40t39 -106q0 -166 -211 -166q-42 0 -85 14.5t-67 33.5l39 79q55 -34 111 -34q39 0 64.5 20t25.5 53q0 49 -36.5 66.5t-113.5 17.5l60 144q-255 53 -418.5 252t-163.5 473z" />
<glyph unicode="&#xc8;" horiz-adv-x="1124" d="M188 0v1427h807v-147h-647v-453h608v-147h-608v-533h662v-147h-822zM377 1823h203l108 -297h-121z" />
<glyph unicode="&#xc9;" horiz-adv-x="1124" d="M188 0v1427h807v-147h-647v-453h608v-147h-608v-533h662v-147h-822zM510 1526l108 297h203l-190 -297h-121z" />
<glyph unicode="&#xca;" horiz-adv-x="1124" d="M188 0v1427h807v-147h-647v-453h608v-147h-608v-533h662v-147h-822zM272 1575l258 248h127l258 -248h-186l-135 135l-135 -135h-187z" />
<glyph unicode="&#xcb;" horiz-adv-x="1124" d="M188 0v1427h807v-147h-647v-453h608v-147h-608v-533h662v-147h-822zM281 1665q0 43 30.5 72.5t71.5 29.5t71.5 -29.5t30.5 -72.5t-30.5 -72.5t-71.5 -29.5t-71.5 29.5t-30.5 72.5zM702 1665q0 43 31 72.5t72 29.5t71.5 -29.5t30.5 -72.5t-30.5 -72.5t-71.5 -29.5 t-72 29.5t-31 72.5z" />
<glyph unicode="&#xcc;" horiz-adv-x="552" d="M27 1823h202l109 -297h-121zM197 0v1427h159v-1427h-159z" />
<glyph unicode="&#xcd;" horiz-adv-x="552" d="M197 0v1427h159v-1427h-159zM213 1526l109 297h202l-190 -297h-121z" />
<glyph unicode="&#xce;" horiz-adv-x="552" d="M-45 1575l258 248h127l258 -248h-186l-136 135l-135 -135h-186zM197 0v1427h159v-1427h-159z" />
<glyph unicode="&#xcf;" horiz-adv-x="552" d="M-16 1665q0 43 30.5 72.5t71.5 29.5t71.5 -29.5t30.5 -72.5t-30.5 -72.5t-71.5 -29.5t-71.5 29.5t-30.5 72.5zM197 0v1427h159v-1427h-159zM365 1665q0 43 30.5 72.5t71.5 29.5t71.5 -29.5t30.5 -72.5t-30.5 -72.5t-71.5 -29.5t-71.5 29.5t-30.5 72.5z" />
<glyph unicode="&#xd0;" horiz-adv-x="1478" d="M55 659v148h133v620h459q342 0 539.5 -196.5t197.5 -517.5t-196.5 -517t-538.5 -196h-461v659h-133zM348 147h289q146 0 259 41.5t184.5 117t108 178.5t36.5 229q0 260 -150 413.5t-440 153.5h-287v-473h297v-148h-297v-512z" />
<glyph unicode="&#xd1;" horiz-adv-x="1538" d="M188 0v1427h140l862 -1142v1142h160v-1427h-129l-873 1155v-1155h-160zM459 1561q9 82 58.5 135t125.5 53q55 0 130 -40t110 -40q38 0 61 20t33 64l100 -8q-23 -201 -188 -201q-46 0 -90 20t-82 40t-70 20q-71 0 -88 -72z" />
<glyph unicode="&#xd2;" horiz-adv-x="1679" d="M96 713q0 157 58.5 295.5t158.5 236t237 153.5t290 56t290 -56t236.5 -153.5t158 -236t58.5 -295.5q0 -210 -99.5 -380.5t-269.5 -266t-374 -95.5t-374.5 95.5t-270 266t-99.5 380.5zM254 713q0 -168 76 -304t210 -213t300 -77q124 0 232.5 45.5t185.5 124t121 188.5 t44 236t-44 236t-121 188.5t-185.5 124t-232.5 45.5q-166 0 -300 -77t-210 -213t-76 -304zM598 1823h203l108 -297h-121z" />
<glyph unicode="&#xd3;" horiz-adv-x="1679" d="M96 713q0 157 58.5 295.5t158.5 236t237 153.5t290 56t290 -56t236.5 -153.5t158 -236t58.5 -295.5q0 -210 -99.5 -380.5t-269.5 -266t-374 -95.5t-374.5 95.5t-270 266t-99.5 380.5zM254 713q0 -168 76 -304t210 -213t300 -77q124 0 232.5 45.5t185.5 124t121 188.5 t44 236t-44 236t-121 188.5t-185.5 124t-232.5 45.5q-166 0 -300 -77t-210 -213t-76 -304zM750 1526l108 297h203l-191 -297h-120z" />
<glyph unicode="&#xd4;" horiz-adv-x="1679" d="M96 713q0 157 58.5 295.5t158.5 236t237 153.5t290 56t290 -56t236.5 -153.5t158 -236t58.5 -295.5q0 -210 -99.5 -380.5t-269.5 -266t-374 -95.5t-374.5 95.5t-270 266t-99.5 380.5zM254 713q0 -168 76 -304t210 -213t300 -77q124 0 232.5 45.5t185.5 124t121 188.5 t44 236t-44 236t-121 188.5t-185.5 124t-232.5 45.5q-166 0 -300 -77t-210 -213t-76 -304zM518 1575l258 248h127l258 -248h-186l-135 135l-135 -135h-187z" />
<glyph unicode="&#xd5;" horiz-adv-x="1679" d="M96 713q0 157 58.5 295.5t158.5 236t237 153.5t290 56t290 -56t236.5 -153.5t158 -236t58.5 -295.5q0 -210 -99.5 -380.5t-269.5 -266t-374 -95.5t-374.5 95.5t-270 266t-99.5 380.5zM254 713q0 -168 76 -304t210 -213t300 -77q124 0 232.5 45.5t185.5 124t121 188.5 t44 236t-44 236t-121 188.5t-185.5 124t-232.5 45.5q-166 0 -300 -77t-210 -213t-76 -304zM530 1561q9 82 59 135t126 53q44 0 88 -20t82 -40t69 -20q75 0 95 84l100 -8q-23 -201 -188 -201q-46 0 -90 20t-82 40t-70 20q-71 0 -88 -72z" />
<glyph unicode="&#xd6;" horiz-adv-x="1679" d="M96 713q0 157 58.5 295.5t158.5 236t237 153.5t290 56t290 -56t236.5 -153.5t158 -236t58.5 -295.5q0 -210 -99.5 -380.5t-269.5 -266t-374 -95.5t-374.5 95.5t-270 266t-99.5 380.5zM254 713q0 -168 76 -304t210 -213t300 -77q124 0 232.5 45.5t185.5 124t121 188.5 t44 236t-44 236t-121 188.5t-185.5 124t-232.5 45.5q-166 0 -300 -77t-210 -213t-76 -304zM526 1626q0 43 31 73t72 30t71.5 -30t30.5 -73t-30.5 -72.5t-71.5 -29.5t-72 29.5t-31 72.5zM948 1626q0 43 31 73t72 30t71.5 -30t30.5 -73t-30.5 -72.5t-71.5 -29.5t-72 29.5 t-31 72.5z" />
<glyph unicode="&#xd7;" horiz-adv-x="786" d="M78 461l221 221l-221 221l92 94l223 -223l221 223l95 -94l-222 -221l222 -221l-95 -96l-221 223l-223 -223z" />
<glyph unicode="&#xd8;" horiz-adv-x="1679" d="M96 713q0 157 58.5 295.5t158.5 236t237 153.5t290 56q215 0 397 -111l119 160l117 -88l-119 -160q108 -102 168.5 -241t60.5 -301q0 -210 -99.5 -380.5t-269.5 -266t-374 -95.5q-198 0 -375 97l-115 -154l-117 86l113 152q-118 102 -184 246.5t-66 314.5zM254 713 q0 -133 47.5 -247t134.5 -194l713 951q-139 84 -309 84q-166 0 -300 -77t-210 -213t-76 -304zM555 188q129 -69 285 -69q124 0 232.5 45.5t185.5 124t121 188.5t44 236q0 253 -161 420z" />
<glyph unicode="&#xd9;" horiz-adv-x="1425" d="M178 500v927h160v-911q0 -192 100 -292.5t275 -100.5q174 0 274 100.5t100 292.5v911h160v-927q0 -127 -40 -227.5t-112 -165t-169 -98.5t-213 -34q-156 0 -275 58t-189.5 178.5t-70.5 288.5zM475 1823h203l108 -297h-120z" />
<glyph unicode="&#xda;" horiz-adv-x="1425" d="M178 500v927h160v-911q0 -192 100 -292.5t275 -100.5q174 0 274 100.5t100 292.5v911h160v-927q0 -127 -40 -227.5t-112 -165t-169 -98.5t-213 -34q-156 0 -275 58t-189.5 178.5t-70.5 288.5zM645 1526l109 297h202l-190 -297h-121z" />
<glyph unicode="&#xdb;" horiz-adv-x="1425" d="M178 500v927h160v-911q0 -192 100 -292.5t275 -100.5q174 0 274 100.5t100 292.5v911h160v-927q0 -127 -40 -227.5t-112 -165t-169 -98.5t-213 -34q-156 0 -275 58t-189.5 178.5t-70.5 288.5zM391 1575l258 248h127l258 -248h-186l-135 135l-135 -135h-187z" />
<glyph unicode="&#xdc;" horiz-adv-x="1425" d="M178 500v927h160v-911q0 -192 100 -292.5t275 -100.5q174 0 274 100.5t100 292.5v911h160v-927q0 -127 -40 -227.5t-112 -165t-169 -98.5t-213 -34q-156 0 -275 58t-189.5 178.5t-70.5 288.5zM399 1626q0 43 31 73t72 30t71.5 -30t30.5 -73t-30.5 -72.5t-71.5 -29.5 t-72 29.5t-31 72.5zM821 1626q0 43 31 73t72 30t71.5 -30t30.5 -73t-30.5 -72.5t-71.5 -29.5t-72 29.5t-31 72.5z" />
<glyph unicode="&#xdd;" horiz-adv-x="1273" d="M57 1427h176l408 -684l403 684h173l-498 -841v-586h-160v586zM571 1526l109 297h203l-191 -297h-121z" />
<glyph unicode="&#xde;" horiz-adv-x="1003" d="M188 0v1427h160v-305h133q210 0 324.5 -116.5t114.5 -303.5q0 -180 -110 -292.5t-314 -112.5h-148v-297h-160zM348 446h133q135 0 207 70t72 193q0 124 -72 194t-209 70h-131v-527z" />
<glyph unicode="&#xdf;" horiz-adv-x="1126" d="M115 0v1106q0 148 101.5 250t250.5 102q146 0 248 -102t102 -248q0 -133 -92 -225q59 -11 117 -44t109 -85.5t82.5 -133t31.5 -174.5q0 -203 -140.5 -340t-355.5 -137q-40 0 -104 11v155q50 -18 104 -18q138 0 237 96.5t99 232.5q0 135 -99 230.5t-237 95.5 q-55 0 -104 -18v143q92 18 142 70.5t50 138.5q0 85 -56 145t-134 60q-82 0 -137.5 -59.5t-55.5 -145.5v-1106h-159z" />
<glyph unicode="&#xe0;" horiz-adv-x="1288" d="M72 516q0 154 70 280t189.5 196.5t262.5 70.5q139 0 230.5 -53.5t136.5 -130.5v153h151v-801q0 -68 18 -98.5t60 -30.5q25 0 53 4v-114q-40 -17 -96 -17q-68 0 -109 29q-59 44 -69 148q-51 -79 -144 -131t-231 -52q-143 0 -262.5 70.5t-189.5 196.5t-70 280zM223 516 q0 -174 105.5 -289.5t265.5 -115.5q166 0 275.5 115.5t109.5 289.5t-110 290t-275 116q-159 0 -265 -116t-106 -290zM354 1427h203l109 -297h-121z" />
<glyph unicode="&#xe1;" horiz-adv-x="1288" d="M72 516q0 154 70 280t189.5 196.5t262.5 70.5q139 0 230.5 -53.5t136.5 -130.5v153h151v-801q0 -68 18 -98.5t60 -30.5q25 0 53 4v-114q-40 -17 -96 -17q-68 0 -109 29q-59 44 -69 148q-51 -79 -144 -131t-231 -52q-143 0 -262.5 70.5t-189.5 196.5t-70 280zM223 516 q0 -174 105.5 -289.5t265.5 -115.5q166 0 275.5 115.5t109.5 289.5t-110 290t-275 116q-159 0 -265 -116t-106 -290zM535 1130l108 297h203l-191 -297h-120z" />
<glyph unicode="&#xe2;" horiz-adv-x="1288" d="M72 516q0 154 70 280t189.5 196.5t262.5 70.5q139 0 230.5 -53.5t136.5 -130.5v153h151v-801q0 -68 18 -98.5t60 -30.5q25 0 53 4v-114q-40 -17 -96 -17q-68 0 -109 29q-59 44 -69 148q-51 -79 -144 -131t-231 -52q-143 0 -262.5 70.5t-189.5 196.5t-70 280zM223 516 q0 -174 105.5 -289.5t265.5 -115.5q166 0 275.5 115.5t109.5 289.5t-110 290t-275 116q-159 0 -265 -116t-106 -290zM307 1180l258 247h127l258 -247h-186l-135 135l-135 -135h-187z" />
<glyph unicode="&#xe3;" horiz-adv-x="1288" d="M72 516q0 154 70 280t189.5 196.5t262.5 70.5q139 0 230.5 -53.5t136.5 -130.5v153h151v-801q0 -68 18 -98.5t60 -30.5q25 0 53 4v-114q-40 -17 -96 -17q-68 0 -109 29q-59 44 -69 148q-51 -79 -144 -131t-231 -52q-143 0 -262.5 70.5t-189.5 196.5t-70 280zM223 516 q0 -174 105.5 -289.5t265.5 -115.5q166 0 275.5 115.5t109.5 289.5t-110 290t-275 116q-159 0 -265 -116t-106 -290zM313 1225q9 82 59 135t126 53q56 0 130 -40t109 -40q38 0 61 20t33 64l101 -8q-23 -201 -189 -201q-46 0 -90 20t-81.5 40t-69.5 20q-71 0 -88 -71z" />
<glyph unicode="&#xe4;" horiz-adv-x="1288" d="M72 516q0 154 70 280t189.5 196.5t262.5 70.5q139 0 230.5 -53.5t136.5 -130.5v153h151v-801q0 -68 18 -98.5t60 -30.5q25 0 53 4v-114q-40 -17 -96 -17q-68 0 -109 29q-59 44 -69 148q-51 -79 -144 -131t-231 -52q-143 0 -262.5 70.5t-189.5 196.5t-70 280zM223 516 q0 -174 105.5 -289.5t265.5 -115.5q166 0 275.5 115.5t109.5 289.5t-110 290t-275 116q-159 0 -265 -116t-106 -290zM305 1303q0 43 31 72.5t72 29.5t71.5 -29.5t30.5 -72.5t-30.5 -73t-71.5 -30t-72 30t-31 73zM727 1303q0 43 30.5 72.5t71.5 29.5t72 -29.5t31 -72.5 t-31 -73t-72 -30t-71.5 30t-30.5 73z" />
<glyph unicode="&#xe5;" horiz-adv-x="1288" d="M72 516q0 154 70 280t189.5 196.5t262.5 70.5q139 0 230.5 -53.5t136.5 -130.5v153h151v-801q0 -68 18 -98.5t60 -30.5q25 0 53 4v-114q-40 -17 -96 -17q-68 0 -109 29q-59 44 -69 148q-51 -79 -144 -131t-231 -52q-143 0 -262.5 70.5t-189.5 196.5t-70 280zM223 516 q0 -174 105.5 -289.5t265.5 -115.5q166 0 275.5 115.5t109.5 289.5t-110 290t-275 116q-159 0 -265 -116t-106 -290zM424 1339q0 82 59 140.5t142 58.5q82 0 140 -58.5t58 -140.5q0 -83 -57.5 -141.5t-140.5 -58.5t-142 58.5t-59 141.5zM528 1339q0 -38 29.5 -67t67.5 -29 t66 29t28 67t-28 66.5t-66 28.5t-67.5 -28.5t-29.5 -66.5z" />
<glyph unicode="&#xe6;" horiz-adv-x="2045" d="M72 516q0 154 70 280t189.5 196.5t262.5 70.5q139 0 230.5 -53.5t136.5 -130.5v153h151v-184q52 93 157 154t222 61q132 0 243 -70.5t176.5 -196.5t65.5 -280q0 -17 -2 -33h-837q6 -170 102.5 -271t255.5 -101q109 0 179 34t149 109l100 -98q-96 -104 -199 -145.5 t-229 -41.5q-130 0 -230 51t-153 140v-160h-151v154q-45 -78 -136.5 -131.5t-230.5 -53.5q-143 0 -262.5 70.5t-189.5 196.5t-70 280zM223 516q0 -174 105.5 -289.5t265.5 -115.5q166 0 275.5 115.5t109.5 289.5t-110 290t-275 116q-159 0 -265 -116t-106 -290zM1147 616 h668q-25 136 -114 221t-210 85q-128 0 -223 -85t-121 -221z" />
<glyph unicode="&#xe7;" horiz-adv-x="1058" d="M72 516q0 154 74 280t199.5 196.5t275.5 70.5q238 0 391 -156l-92 -106q-118 121 -299 121q-171 0 -284.5 -116t-113.5 -290t113.5 -289.5t284.5 -115.5q182 0 299 120l92 -106q-153 -156 -391 -156h-19l-29 -63q57 0 96.5 -40t39.5 -106q0 -166 -211 -166 q-42 0 -85 14.5t-67 33.5l39 79q55 -34 111 -34q39 0 64.5 20t25.5 53q0 49 -36.5 66.5t-113.5 17.5l58 140q-185 40 -303.5 186.5t-118.5 345.5z" />
<glyph unicode="&#xe8;" horiz-adv-x="1128" d="M72 504v8q0 247 146 399t370 152q211 0 343 -148t132 -366q0 -35 -2 -66h-838q6 -170 106 -271t263 -101q106 0 176.5 34.5t140.5 108.5l101 -98q-91 -101 -193.5 -142t-224.5 -41q-232 0 -376 145.5t-144 385.5zM233 616h668q0 125 -91.5 215.5t-221.5 90.5 q-140 0 -243.5 -90t-111.5 -216zM367 1427h202l109 -297h-121z" />
<glyph unicode="&#xe9;" horiz-adv-x="1128" d="M72 504v8q0 247 146 399t370 152q211 0 343 -148t132 -366q0 -35 -2 -66h-838q6 -170 106 -271t263 -101q106 0 176.5 34.5t140.5 108.5l101 -98q-91 -101 -193.5 -142t-224.5 -41q-232 0 -376 145.5t-144 385.5zM233 616h668q0 125 -91.5 215.5t-221.5 90.5 q-140 0 -243.5 -90t-111.5 -216zM528 1130l109 297h203l-191 -297h-121z" />
<glyph unicode="&#xea;" horiz-adv-x="1128" d="M72 504v8q0 247 146 399t370 152q211 0 343 -148t132 -366q0 -35 -2 -66h-838q6 -170 106 -271t263 -101q106 0 176.5 34.5t140.5 108.5l101 -98q-91 -101 -193.5 -142t-224.5 -41q-232 0 -376 145.5t-144 385.5zM233 616h668q0 125 -91.5 215.5t-221.5 90.5 q-140 0 -243.5 -90t-111.5 -216zM270 1180l258 247h127l258 -247h-186l-135 135l-135 -135h-187z" />
<glyph unicode="&#xeb;" horiz-adv-x="1128" d="M72 504v8q0 247 146 399t370 152q211 0 343 -148t132 -366q0 -35 -2 -66h-838q6 -170 106 -271t263 -101q106 0 176.5 34.5t140.5 108.5l101 -98q-91 -101 -193.5 -142t-224.5 -41q-232 0 -376 145.5t-144 385.5zM233 616h668q0 125 -91.5 215.5t-221.5 90.5 q-140 0 -243.5 -90t-111.5 -216zM276 1303q0 43 31 72.5t72 29.5t71.5 -29.5t30.5 -72.5t-30.5 -73t-71.5 -30t-72 30t-31 73zM698 1303q0 43 31 72.5t72 29.5t71.5 -29.5t30.5 -72.5t-30.5 -73t-71.5 -30t-72 30t-31 73z" />
<glyph unicode="&#xec;" horiz-adv-x="434" d="M-43 1427h203l108 -297h-121zM119 195v837h151v-811q0 -58 17.5 -83t60.5 -25q25 0 53 4v-125q-40 -17 -96 -17q-26 0 -48 3.5t-49 17t-45.5 36t-31 64.5t-12.5 99z" />
<glyph unicode="&#xed;" horiz-adv-x="434" d="M119 195v837h151v-811q0 -58 17.5 -83t60.5 -25q25 0 53 4v-125q-40 -17 -96 -17q-26 0 -48 3.5t-49 17t-45.5 36t-31 64.5t-12.5 99zM123 1130l108 297h203l-190 -297h-121z" />
<glyph unicode="&#xee;" horiz-adv-x="434" d="M-76 1180l207 247h127l207 -247h-176l-94 147l-95 -147h-176zM119 195v837h151v-811q0 -58 17.5 -83t60.5 -25q25 0 53 4v-125q-40 -17 -96 -17q-26 0 -48 3.5t-49 17t-45.5 36t-31 64.5t-12.5 99z" />
<glyph unicode="&#xef;" horiz-adv-x="434" d="M-55 1303q0 43 30.5 72.5t71.5 29.5t72 -29.5t31 -72.5t-31 -73t-72 -30t-71.5 30t-30.5 73zM119 195v837h151v-811q0 -58 17.5 -83t60.5 -25q25 0 53 4v-125q-40 -17 -96 -17q-26 0 -48 3.5t-49 17t-45.5 36t-31 64.5t-12.5 99zM240 1303q0 43 30.5 72.5t71.5 29.5 t71.5 -29.5t30.5 -72.5t-30.5 -73t-71.5 -30t-71.5 30t-30.5 73z" />
<glyph unicode="&#xf0;" horiz-adv-x="1097" d="M72 444q0 133 64 243.5t168.5 171.5t223.5 61q99 0 186 -39t134 -105q-33 101 -109.5 200.5t-158.5 162.5l-160 -152l-98 105l137 131q-124 72 -244 94l29 143q159 -28 327 -131l174 164l99 -104l-154 -146q258 -216 318 -536q18 -108 18 -207q0 -240 -125.5 -385.5 t-351.5 -145.5q-131 0 -240 61t-173 170.5t-64 243.5zM231 444q0 -140 91 -233.5t227 -93.5t226.5 93.5t90.5 233.5t-90.5 234t-226.5 94t-227 -94t-91 -234z" />
<glyph unicode="&#xf1;" horiz-adv-x="1134" d="M117 0v1032h151v-174q41 87 125.5 139t200.5 52q173 0 275 -107.5t102 -282.5v-426q0 -63 13.5 -85.5t57.5 -22.5q15 0 39 4v-125q-25 -10 -65 -10q-28 0 -51 3.5t-51.5 17t-48 37t-33 67.5t-13.5 104v404q0 129 -70.5 204.5t-193.5 75.5q-127 0 -207 -80.5t-80 -210.5 v-616h-151zM262 1225q9 82 58.5 135t125.5 53q44 0 88 -20t82.5 -40t69.5 -20q38 0 61 20t33 64l101 -8q-23 -201 -189 -201q-46 0 -90 20t-81.5 40t-69.5 20q-72 0 -89 -71z" />
<glyph unicode="&#xf2;" d="M72 516q0 154 74 280t199.5 196.5t275.5 70.5t275.5 -70.5t199 -196.5t73.5 -280t-73.5 -280t-199 -196.5t-275.5 -70.5t-275.5 70.5t-199.5 196.5t-74 280zM223 516q0 -174 113.5 -289.5t284.5 -115.5t284 115.5t113 289.5t-113 290t-284 116t-284.5 -116t-113.5 -290z M367 1427h202l109 -297h-121z" />
<glyph unicode="&#xf3;" d="M72 516q0 154 74 280t199.5 196.5t275.5 70.5t275.5 -70.5t199 -196.5t73.5 -280t-73.5 -280t-199 -196.5t-275.5 -70.5t-275.5 70.5t-199.5 196.5t-74 280zM223 516q0 -174 113.5 -289.5t284.5 -115.5t284 115.5t113 289.5t-113 290t-284 116t-284.5 -116t-113.5 -290z M563 1130l109 297h202l-190 -297h-121z" />
<glyph unicode="&#xf4;" d="M72 516q0 154 74 280t199.5 196.5t275.5 70.5t275.5 -70.5t199 -196.5t73.5 -280t-73.5 -280t-199 -196.5t-275.5 -70.5t-275.5 70.5t-199.5 196.5t-74 280zM223 516q0 -174 113.5 -289.5t284.5 -115.5t284 115.5t113 289.5t-113 290t-284 116t-284.5 -116t-113.5 -290z M299 1180l258 247h127l258 -247h-186l-135 135l-136 -135h-186z" />
<glyph unicode="&#xf5;" d="M72 516q0 154 74 280t199.5 196.5t275.5 70.5t275.5 -70.5t199 -196.5t73.5 -280t-73.5 -280t-199 -196.5t-275.5 -70.5t-275.5 70.5t-199.5 196.5t-74 280zM223 516q0 -174 113.5 -289.5t284.5 -115.5t284 115.5t113 289.5t-113 290t-284 116t-284.5 -116t-113.5 -290z M309 1225q9 82 59 135t126 53q56 0 130 -40t109 -40q38 0 61 20t33 64l101 -8q-23 -201 -189 -201q-46 0 -90 20t-81.5 40t-69.5 20q-71 0 -88 -71z" />
<glyph unicode="&#xf6;" d="M72 516q0 154 74 280t199.5 196.5t275.5 70.5t275.5 -70.5t199 -196.5t73.5 -280t-73.5 -280t-199 -196.5t-275.5 -70.5t-275.5 70.5t-199.5 196.5t-74 280zM223 516q0 -174 113.5 -289.5t284.5 -115.5t284 115.5t113 289.5t-113 290t-284 116t-284.5 -116t-113.5 -290z M307 1303q0 43 31 72.5t72 29.5t71.5 -29.5t30.5 -72.5t-30.5 -73t-71.5 -30t-72 30t-31 73zM729 1303q0 43 30.5 72.5t71.5 29.5t72 -29.5t31 -72.5t-31 -73t-72 -30t-71.5 30t-30.5 73z" />
<glyph unicode="&#xf7;" horiz-adv-x="872" d="M86 641v141h700v-141h-700zM334 428q0 43 30.5 72.5t71.5 29.5t72 -29.5t31 -72.5t-31 -72.5t-72 -29.5t-71.5 29.5t-30.5 72.5zM334 995q0 43 30.5 73t71.5 30t72 -30t31 -73t-31 -72.5t-72 -29.5t-71.5 29.5t-30.5 72.5z" />
<glyph unicode="&#xf8;" d="M72 516q0 154 74 280t199.5 196.5t275.5 70.5q143 0 270 -68l76 105l110 -80l-78 -102q80 -75 125 -179t45 -223q0 -154 -73.5 -280t-199 -196.5t-275.5 -70.5q-141 0 -267 66l-84 -115l-108 82l82 111q-81 75 -126.5 178.5t-45.5 224.5zM223 516q0 -170 109 -285 l473 648q-84 43 -184 43q-171 0 -284.5 -116t-113.5 -290zM440 152q80 -41 181 -41q171 0 284 115.5t113 289.5q0 166 -105 281z" />
<glyph unicode="&#xf9;" horiz-adv-x="1120" d="M104 373v659h152v-626q0 -130 68.5 -205.5t187.5 -75.5q124 0 202.5 80.5t78.5 210.5v616h151v-792q0 -68 18 -98.5t60 -30.5q25 0 53 4v-115q-33 -16 -96 -16q-85 0 -127 47q-37 42 -47 102q-41 -63 -123.5 -106t-206.5 -43q-170 0 -270.5 107t-100.5 282zM295 1427h203 l108 -297h-121z" />
<glyph unicode="&#xfa;" horiz-adv-x="1120" d="M104 373v659h152v-626q0 -130 68.5 -205.5t187.5 -75.5q124 0 202.5 80.5t78.5 210.5v616h151v-792q0 -68 18 -98.5t60 -30.5q25 0 53 4v-115q-33 -16 -96 -16q-85 0 -127 47q-37 42 -47 102q-41 -63 -123.5 -106t-206.5 -43q-170 0 -270.5 107t-100.5 282zM467 1130 l108 297h203l-190 -297h-121z" />
<glyph unicode="&#xfb;" horiz-adv-x="1120" d="M104 373v659h152v-626q0 -130 68.5 -205.5t187.5 -75.5q124 0 202.5 80.5t78.5 210.5v616h151v-792q0 -68 18 -98.5t60 -30.5q25 0 53 4v-115q-33 -16 -96 -16q-85 0 -127 47q-37 42 -47 102q-41 -63 -123.5 -106t-206.5 -43q-170 0 -270.5 107t-100.5 282zM217 1180 l258 247h127l258 -247h-186l-135 135l-136 -135h-186z" />
<glyph unicode="&#xfc;" horiz-adv-x="1120" d="M104 373v659h152v-626q0 -130 68.5 -205.5t187.5 -75.5q124 0 202.5 80.5t78.5 210.5v616h151v-792q0 -68 18 -98.5t60 -30.5q25 0 53 4v-115q-33 -16 -96 -16q-85 0 -127 47q-37 42 -47 102q-41 -63 -123.5 -106t-206.5 -43q-170 0 -270.5 107t-100.5 282zM225 1303 q0 43 31 72.5t72 29.5t71.5 -29.5t30.5 -72.5t-30.5 -73t-71.5 -30t-72 30t-31 73zM647 1303q0 43 31 72.5t72 29.5t71.5 -29.5t30.5 -72.5t-30.5 -73t-71.5 -30t-72 30t-31 73z" />
<glyph unicode="&#xfd;" horiz-adv-x="1028" d="M31 1032h151l340 -870l328 870h151l-466 -1208q-45 -113 -101 -174q-75 -78 -201 -78q-59 0 -102 18v140q47 -17 102 -17q52 0 89 23q43 30 81 125l46 116zM457 1130l108 297h203l-190 -297h-121z" />
<glyph unicode="&#xfe;" horiz-adv-x="1228" d="M117 -395v1822h151v-548q45 77 136.5 130.5t230.5 53.5q143 0 262.5 -70.5t189.5 -196.5t70 -280t-70 -280t-189.5 -196.5t-262.5 -70.5q-139 0 -230.5 53.5t-136.5 131.5v-549h-151zM250 516q0 -174 109.5 -289.5t275.5 -115.5q160 0 265.5 115.5t105.5 289.5t-106 290 t-265 116q-165 0 -275 -116t-110 -290z" />
<glyph unicode="&#xff;" horiz-adv-x="1028" d="M31 1032h151l340 -870l328 870h151l-466 -1208q-45 -113 -101 -174q-75 -78 -201 -78q-59 0 -102 18v140q47 -17 102 -17q52 0 89 23q43 30 81 125l46 116zM215 1303q0 43 30.5 72.5t71.5 29.5t72 -29.5t31 -72.5t-31 -73t-72 -30t-71.5 30t-30.5 73zM637 1303 q0 43 30.5 72.5t71.5 29.5t72 -29.5t31 -72.5t-31 -73t-72 -30t-71.5 30t-30.5 73z" />
<glyph unicode="&#x152;" horiz-adv-x="2220" d="M96 713q0 157 58.5 295.5t158.5 236t237 153.5t290 56q380 0 575 -301v274h676v-147h-516v-453h477v-147h-477v-533h530v-147h-690v281q-188 -310 -575 -310q-204 0 -374.5 95.5t-270 266t-99.5 380.5zM254 713q0 -168 76 -304t210 -213t300 -77q124 0 232.5 45.5 t185.5 124t121 188.5t44 236t-44 236t-121 188.5t-185.5 124t-232.5 45.5q-166 0 -300 -77t-210 -213t-76 -304z" />
<glyph unicode="&#x153;" horiz-adv-x="2082" d="M72 516q0 154 74 280t199.5 196.5t275.5 70.5q152 0 274 -71t192 -197q67 125 182.5 196.5t258.5 71.5q141 0 259 -70.5t187.5 -196.5t69.5 -280q0 -17 -2 -33h-879q6 -168 108 -265t271 -97q111 0 202 36t152 101l103 -111q-86 -86 -204 -132t-253 -46q-160 0 -278 67.5 t-181 192.5q-70 -123 -190.5 -191.5t-271.5 -68.5q-150 0 -275.5 70.5t-199.5 196.5t-74 280zM223 516q0 -174 113.5 -289.5t284.5 -115.5t284 115.5t113 289.5t-113 290t-284 116t-284.5 -116t-113.5 -290zM1174 616h708q-28 136 -125 221t-229 85t-229 -85t-125 -221z" />
<glyph unicode="&#x178;" horiz-adv-x="1273" d="M57 1427h176l408 -684l403 684h173l-498 -841v-586h-160v586zM324 1624q0 43 30.5 72.5t71.5 29.5t71.5 -29.5t30.5 -72.5t-30.5 -72.5t-71.5 -29.5t-71.5 29.5t-30.5 72.5zM745 1624q0 43 31 72.5t72 29.5t71.5 -29.5t30.5 -72.5t-30.5 -72.5t-71.5 -29.5t-72 29.5 t-31 72.5z" />
<glyph unicode="&#x2c6;" horiz-adv-x="1249" d="M285 1180l250 247h180l250 -247h-187l-153 151l-154 -151h-186z" />
<glyph unicode="&#x2dc;" horiz-adv-x="1191" d="M287 1270q9 82 58.5 135t125.5 53q55 0 130 -40t110 -40q38 0 61 20t33 64l100 -8q-23 -201 -188 -201q-46 0 -90 20t-82 40t-70 20q-71 0 -88 -71z" />
<glyph unicode="&#x2000;" horiz-adv-x="911" />
<glyph unicode="&#x2001;" horiz-adv-x="1823" />
<glyph unicode="&#x2002;" horiz-adv-x="911" />
<glyph unicode="&#x2003;" horiz-adv-x="1823" />
<glyph unicode="&#x2004;" horiz-adv-x="607" />
<glyph unicode="&#x2005;" horiz-adv-x="455" />
<glyph unicode="&#x2006;" horiz-adv-x="303" />
<glyph unicode="&#x2007;" horiz-adv-x="303" />
<glyph unicode="&#x2008;" horiz-adv-x="227" />
<glyph unicode="&#x2009;" horiz-adv-x="364" />
<glyph unicode="&#x200a;" horiz-adv-x="101" />
<glyph unicode="&#x2010;" horiz-adv-x="786" d="M86 469v141h614v-141h-614z" />
<glyph unicode="&#x2011;" horiz-adv-x="786" d="M86 469v141h614v-141h-614z" />
<glyph unicode="&#x2012;" horiz-adv-x="786" d="M86 469v141h614v-141h-614z" />
<glyph unicode="&#x2013;" horiz-adv-x="933" d="M84 469v141h766v-141h-766z" />
<glyph unicode="&#x2014;" horiz-adv-x="1474" d="M84 469v141h1307v-141h-1307z" />
<glyph unicode="&#x2018;" horiz-adv-x="366" d="M8 911l268 516h130l-195 -516h-203z" />
<glyph unicode="&#x2019;" horiz-adv-x="382" d="M-8 911l194 516h203l-268 -516h-129z" />
<glyph unicode="&#x201a;" horiz-adv-x="382" d="M-74 -262l185 489h202l-258 -489h-129z" />
<glyph unicode="&#x201c;" horiz-adv-x="706" d="M8 911l268 516h130l-195 -516h-203zM348 911l268 516h129l-194 -516h-203z" />
<glyph unicode="&#x201d;" horiz-adv-x="722" d="M-8 911l194 516h203l-268 -516h-129zM332 911l194 516h203l-268 -516h-129z" />
<glyph unicode="&#x201e;" horiz-adv-x="698" d="M-74 -262l185 489h202l-258 -489h-129zM266 -262l185 489h202l-258 -489h-129z" />
<glyph unicode="&#x2022;" horiz-adv-x="536" d="M100 520q0 72 50 120t118 48t118 -48t50 -120t-50 -120t-118 -48t-118 48t-50 120z" />
<glyph unicode="&#x2026;" horiz-adv-x="1114" d="M90 88q0 43 31 72.5t72 29.5t71.5 -29.5t30.5 -72.5t-30.5 -72.5t-71.5 -29.5t-72 29.5t-31 72.5zM455 88q0 43 30.5 72.5t71.5 29.5t71.5 -29.5t30.5 -72.5t-30.5 -72.5t-71.5 -29.5t-71.5 29.5t-30.5 72.5zM819 88q0 43 31 72.5t72 29.5t71.5 -29.5t30.5 -72.5 t-30.5 -72.5t-71.5 -29.5t-72 29.5t-31 72.5z" />
<glyph unicode="&#x202f;" horiz-adv-x="364" />
<glyph unicode="&#x2039;" horiz-adv-x="528" d="M72 518l225 359h160l-226 -359l226 -358h-160z" />
<glyph unicode="&#x203a;" horiz-adv-x="528" d="M72 160l225 358l-225 359h159l226 -359l-226 -358h-159z" />
<glyph unicode="&#x205f;" horiz-adv-x="455" />
<glyph unicode="&#x20ac;" horiz-adv-x="1525" d="M16 492l62 141h166q-4 54 -4 80q0 49 6 96h-187l62 141h151q68 227 246 365.5t404 138.5q147 0 275.5 -57t223.5 -160l-112 -100q-72 81 -171 125.5t-216 44.5q-168 0 -297 -97.5t-187 -259.5h557l-61 -141h-528q-7 -54 -7 -96q0 -26 4 -80h461l-61 -141h-371 q55 -169 186 -271t304 -102q123 0 226.5 46t176.5 132l115 -102q-98 -107 -231.5 -165.5t-286.5 -58.5q-230 0 -410.5 144t-243.5 377h-252z" />
<glyph unicode="&#x2122;" horiz-adv-x="1724" d="M45 1280v147h637v-147h-242v-612h-153v612h-242zM776 668v762h15l399 -408l399 408h15v-762h-154v417l-260 -286l-260 286v-417h-154z" />
<glyph unicode="&#x25fc;" horiz-adv-x="1034" d="M0 0v1034h1034v-1034h-1034z" />
<glyph unicode="&#xfb01;" horiz-adv-x="1024" d="M63 891v141h166v86q0 111 24 174.5t77 106.5q82 59 252 59q60 0 100 -8v-143q-46 10 -117 10q-97 0 -140.5 -40.5t-43.5 -137.5v-107h479v-811q0 -58 17.5 -83t60.5 -25q25 0 53 4v-125q-40 -17 -96 -17q-26 0 -48 3.5t-49 17t-45.5 36t-31 64.5t-12.5 99v696h-328v-891 h-152v891h-166z" />
<glyph unicode="&#xfb02;" horiz-adv-x="1183" d="M63 891v141h166v86q0 111 24 174.5t77 106.5q42 37 94 48t117 11q48 0 80 -8v-143q-39 10 -97 10q-75 0 -109 -40.5t-34 -137.5v-107h194v-141h-194v-891h-152v891h-166zM760 260v1167h151v-1157q0 -86 29 -122.5t100 -36.5q51 0 74 4v-129q-30 -17 -94 -17 q-37 0 -67 4.5t-68 22t-63.5 47t-43.5 85.5t-18 132z" />
<glyph unicode="&#xfb03;" horiz-adv-x="1503" d="M63 891v141h166v86q0 62 10 112.5t27 85.5t42 61t51.5 41.5t59 24.5t61 12t61.5 3q48 0 80 -8v-143q-39 10 -97 10q-75 0 -109 -40.5t-34 -137.5v-107h328v86q0 111 23.5 174.5t76.5 106.5q82 59 252 59q60 0 100 -8v-143q-46 10 -117 10q-97 0 -140.5 -40.5 t-43.5 -137.5v-107h479v-811q0 -58 17.5 -83t60.5 -25q25 0 53 4v-125q-40 -17 -96 -17q-26 0 -48 3.5t-49 17t-45.5 36t-31 64.5t-12.5 99v696h-328v-891h-151v891h-328v-891h-152v891h-166z" />
<glyph unicode="&#xfb04;" horiz-adv-x="1642" d="M63 891v141h166v86q0 62 10 112.5t27 85.5t42 61t51.5 41.5t59 24.5t61 12t61.5 3q48 0 80 -8v-143q-39 10 -97 10q-75 0 -109 -40.5t-34 -137.5v-107h328v86q0 72 13 128.5t37 92.5t53 60.5t66 37t70 17t72 4.5q48 0 80 -8v-143q-39 10 -96 10q-75 0 -109.5 -41 t-34.5 -137v-107h195v-141h-195v-891h-151v891h-328v-891h-152v891h-166zM1219 260v1167h151v-1157q0 -86 29 -122.5t100 -36.5q51 0 74 4v-129q-30 -17 -94 -17q-37 0 -67 4.5t-68 22t-63.5 47t-43.5 85.5t-18 132z" />
</font>
</defs>
</svg>
